<svg xmlns="http://www.w3.org/2000/svg" viewBox="0 0 512 512"><path d="M490.667 330.667c0-64.802-95.513-117.334-213.334-117.334S64 265.865 64 330.667v42.666c0 64.801 95.513 117.334 213.333 117.334s213.334-52.533 213.334-117.334z" style="fill:#fdcf6d"/><path d="M277.333 490.667C159.698 490.667 64 438.02 64 373.333h21.333c0 51.146 89.72 96 192 96s192-44.854 192-96h21.334c0 64.688-95.698 117.334-213.334 117.334z" style="fill:#fdbc34"/><ellipse cx="277.333" cy="330.667" rx="213.333" ry="117.333" style="fill:#fdab00"/><ellipse cx="266.667" cy="309.333" rx="192" ry="85.333" style="fill:#f59707"/><path d="M277.333 448C159.698 448 64 395.354 64 330.667h21.333c0 51.146 89.72 96 192 96s192-44.854 192-96-89.718-96-192-96v-21.334c117.636 0 213.334 52.646 213.334 117.334S394.969 448 277.333 448z" style="fill:#f59707"/><path d="M21.333 266.667c0 64.8 95.513 117.333 213.334 117.333S448 331.467 448 266.667" style="fill:#fdcf6d"/><path d="M234.667 384C117.03 384 21.333 331.354 21.333 266.667V224c0-64.688 95.698-117.333 213.334-117.333S448 159.312 448 224v42.667C448 331.354 352.302 384 234.667 384zm0-256c-102.282 0-192 44.854-192 96v42.667c0 51.146 89.718 96 192 96s192-44.854 192-96V224c0-51.146-89.72-96-192-96z" style="fill:#fdbc34"/><ellipse cx="234.667" cy="224" rx="213.333" ry="117.333" style="fill:#fdab00"/><path d="M234.667 341.333C117.03 341.333 21.333 288.687 21.333 224h21.334c0 51.146 89.718 96 192 96s192-44.854 192-96-89.72-96-192-96v-21.333C352.302 106.667 448 159.312 448 224s-95.698 117.333-213.333 117.333z" style="fill:#f59707"/><path d="M490.667 138.667c0-64.802-95.513-117.334-213.334-117.334S64 73.865 64 138.667v42.666c0 64.801 95.513 117.334 213.333 117.334s213.334-52.533 213.334-117.334z" style="fill:#fdcf6d"/><path d="M277.333 298.667C159.698 298.667 64 246.02 64 181.333h21.333c0 51.146 89.72 96 192 96s192-44.854 192-96h21.334c0 64.688-95.698 117.334-213.334 117.334z" style="fill:#fdbc34"/><ellipse cx="277.333" cy="138.667" rx="213.333" ry="117.333" style="fill:#fdbc34"/><path d="M106.667 138.667H85.333c0-51.146 89.72-96 192-96V64c-102.593 0-170.666 44.938-170.666 74.667z" style="fill:#fdcf6d"/><path d="M277.333 256C159.698 256 64 203.354 64 138.667h21.333c0 51.146 89.72 96 192 96s192-44.854 192-96-89.718-96-192-96V21.333c117.636 0 213.334 52.646 213.334 117.334S394.969 256 277.333 256z" style="fill:#fdab00"/><circle cx="330.667" cy="53.333" r="10.667" style="fill:#f59707"/><ellipse cx="181.333" cy="213.333" rx="32" ry="21.333" style="fill:#ef7f00"/><ellipse cx="170.667" cy="202.667" rx="21.333" ry="10.667" style="fill:#f59707"/><path d="M170.667 106.667c0-21.334 21.333-21.334 21.333-21.334h21.333s21.334 0 21.334-21.333S256 42.667 256 42.667c21.333 0 21.333 21.333 21.333 21.333 0 21.333 21.334 21.333 21.334 21.333h64c21.333 0 42.666 21.334 42.666 42.667S384 170.667 362.667 170.667 320 192 320 213.333s-21.333 21.334-21.333 21.334-21.334 0-21.334-21.334S256 192 256 192c-42.667 0-42.667-42.667-42.667-42.667S213.333 128 192 128c0 0-21.333 0-21.333-21.333z" style="fill:#ef7f00"/><path d="M299.031 234.667c-13.469-.438-21.698-8.813-21.698-21.334C277.333 192.25 256.208 192 256 192c-29.125 0-42.417-21.396-42.667-42.604 0-.333-.24-21.396-21.333-21.396-13.073-.333-21.333-8.708-21.333-21.333H192c27.708 0 42.667 21.958 42.667 42.604.093 7.917 2.99 21.396 21.333 21.396 20.688 0 42.667 14.958 42.667 42.666 0-33.5 30.5-64 64-64 9.573 0 21.333-11.77 21.333-21.333h21.333c0 21.542-21.135 42.667-42.666 42.667S320 191.792 320 213.333c0 12.521-8.23 20.896-20.969 21.334z" style="fill:#e76400"/><ellipse cx="192" cy="96" rx="21.333" ry="10.667" style="fill:#f59707"/><ellipse cx="256" cy="160" rx="21.333" ry="10.667" style="fill:#f59707"/><ellipse cx="352" cy="112" rx="32" ry="16" style="fill:#f59707"/></svg>